# xmcd
# Track frame offsets:
# 150
# 9685
# 21952
# 34335
# 51720
# 62350
# 74447
# 87122
# 100497
# 113915
# 126845
#
# Disc length: 1927 seconds
# Revision: 0
# Processed by: cddbd v1.4PL0 Copyright (c) Steve Scherf et al.
# Submitted via: VisiTrax 2.9.5.180 - For more info visit www.synapsa.com
#
DISCID=9b07850b
DTITLE=Jett Williams - I'm so lonesome I could cry
DYEAR=1900
DGENRE=
TTITLE0=Thunderbird cafe
TTITLE1=Hey, good lookin'
TTITLE2=I am what I am
TTITLE3=Another cheatin' heart
TTITLE4=Honky tonk heartbreak
TTITLE5=I'm no stranger to the blues
TTITLE6=Tell it to m heart
TTITLE7=Jambalaya
TTITLE8=I can two step too
TTITLE9=Make love to me
TTITLE10=I'm so lonesome I could cry
EXTD=
EXTT0=
EXTT1=
EXTT2=
EXTT3=
EXTT4=
EXTT5=
EXTT6=
EXTT7=
EXTT8=
EXTT9=
EXTT10=
PLAYORDER=
